<?xml version="1.0" standalone="no"?>
<!DOCTYPE svg PUBLIC "-//W3C//DTD SVG 20010904//EN"
 "http://www.w3.org/TR/2001/REC-SVG-20010904/DTD/svg10.dtd">
<svg version="1.0" xmlns="http://www.w3.org/2000/svg"
 width="660.000000pt" height="355.000000pt" viewBox="0 0 660.000000 355.000000"
 preserveAspectRatio="xMidYMid meet">

<g transform="translate(0.000000,355.000000) scale(0.100000,-0.100000)"
fill="#000000" stroke="none">
<path d="M1969 2976 c-57 -20 -96 -53 -126 -104 -28 -47 -28 -47 -28 -243 l0
-196 30 -49 c19 -30 49 -60 79 -79 47 -29 54 -30 183 -33 l133 -4 0 -37 0 -38
-52 -7 c-72 -10 -221 -60 -288 -98 -177 -101 -311 -249 -379 -420 -60 -149
-74 -293 -45 -436 32 -157 98 -284 207 -399 183 -193 440 -294 712 -280 139 7
243 34 370 96 416 203 585 675 385 1076 -126 253 -375 421 -692 470 -35 5 -38
8 -38 40 l0 34 173 3 c173 3 174 3 223 33 30 19 60 49 79 79 l30 49 0 197 0
197 -30 49 c-19 30 -49 60 -79 79 l-49 30 -381 2 c-295 2 -389 0 -417 -11z
m766 -181 c24 -23 25 -29 25 -165 0 -136 -1 -142 -25 -165 l-24 -25 -341 0
-341 0 -24 25 c-24 23 -25 29 -25 165 0 136 1 142 25 165 l24 25 341 0 341 0
24 -25z m-179 -735 c385 -97 625 -458 549 -825 -15 -74 -93 -241 -126 -271
-17 -15 -16 -12 5 27 55 102 71 173 71 324 0 127 -3 147 -28 220 -76 217 -252
388 -471 457 -38 12 -104 22 -176 25 -97 5 -129 2 -198 -15 -299 -76 -505
-307 -542 -609 -17 -136 6 -265 71 -398 28 -57 28 -59 5 -30 -119 143 -168
394 -115 585 34 124 82 204 184 305 97 98 187 153 315 194 139 45 306 49 456
11z m-53 -438 c76 -38 129 -92 165 -171 22 -46 26 -71 26 -136 0 -103 -34
-183 -106 -251 -75 -70 -125 -89 -238 -89 -82 0 -103 4 -150 26 -70 33 -136
99 -169 169 -35 74 -37 210 -5 281 23 50 80 117 126 150 95 68 238 76 351 21z"/>
<path d="M869 2496 c-77 -27 -143 -105 -154 -179 -3 -23 -5 -391 -3 -817 3
-858 -1 -799 69 -869 67 -68 53 -66 492 -69 l397 -3 0 86 0 85 -370 0 -371 0
-24 25 -25 24 0 756 0 756 25 24 24 25 246 0 245 0 0 85 0 85 -257 0 c-186 -1
-268 -5 -294 -14z"/>
<path d="M3350 1700 l0 -620 140 0 140 0 2 294 3 293 154 -294 155 -294 74 3
75 3 151 287 c83 158 154 288 159 288 4 0 7 -130 7 -290 l0 -290 135 0 135 0
0 620 0 620 -132 0 -133 0 -187 -363 c-103 -199 -193 -370 -200 -380 -11 -15
-37 29 -211 363 l-199 380 -134 0 -134 0 0 -620z"/>
<path d="M5530 2180 l0 -140 95 0 95 0 0 -335 0 -335 -300 0 -300 0 0 70 0 70
-141 0 -141 0 4 -137 c3 -125 5 -142 28 -183 16 -28 43 -55 74 -75 l49 -30
410 -3 c455 -3 475 -1 535 61 63 65 62 52 62 642 l0 535 -235 0 -235 0 0 -140z"/>
<path d="M3210 800 l0 -30 90 0 c89 0 90 0 90 -25 0 -25 -1 -25 -90 -25 l-90
0 0 -75 0 -75 30 0 c29 0 30 2 30 45 l0 45 71 0 c100 0 109 7 109 83 0 36 -5
68 -12 75 -8 8 -49 12 -120 12 l-108 0 0 -30z"/>
<path d="M3490 700 l0 -130 30 0 c29 0 30 1 30 50 l0 50 60 0 60 0 0 -50 c0
-49 1 -50 30 -50 l30 0 0 130 0 130 -30 0 c-29 0 -30 -1 -30 -50 l0 -50 -60 0
-60 0 0 50 c0 49 -1 50 -30 50 l-30 0 0 -130z"/>
<path d="M3782 818 c-16 -16 -16 -220 0 -236 19 -19 193 -16 212 4 20 20 23
213 4 232 -16 16 -200 16 -216 0z m168 -118 l0 -71 -62 3 -63 3 -3 68 -3 67
66 0 65 0 0 -70z"/>
<path d="M4050 800 c0 -28 2 -30 40 -30 l40 0 0 -100 0 -100 25 0 25 0 0 100
0 100 40 0 c38 0 40 2 40 30 l0 30 -105 0 -105 0 0 -30z"/>
<path d="M4312 818 c-16 -16 -16 -220 0 -236 19 -19 193 -16 212 4 20 20 23
213 4 232 -16 16 -200 16 -216 0z m168 -118 l0 -71 -62 3 -63 3 -3 68 -3 67
66 0 65 0 0 -70z"/>
<path d="M4592 818 c-16 -16 -16 -220 0 -236 8 -8 46 -12 104 -12 116 0 124 6
124 96 l0 64 -65 0 -65 0 0 -30 c0 -28 3 -30 35 -30 29 0 35 -4 35 -20 0 -19
-5 -21 -62 -18 l-63 3 -3 68 -3 67 96 0 95 0 0 30 0 30 -108 0 c-71 0 -112 -4
-120 -12z"/>
<path d="M4860 800 l0 -30 85 0 c84 0 85 0 85 -25 0 -25 -1 -25 -85 -25 l-85
0 0 -75 0 -75 30 0 c29 0 30 2 30 45 0 38 3 45 20 45 10 0 36 -20 57 -45 32
-39 42 -45 76 -45 l39 0 -35 44 -36 43 24 11 c23 10 25 18 25 71 0 94 4 91
-121 91 l-109 0 0 -30z"/>
<path d="M5220 808 c-5 -13 -30 -70 -54 -128 l-45 -105 27 -3 c19 -3 31 3 41
17 20 31 122 31 142 0 10 -14 22 -20 40 -17 l26 3 -54 128 c-53 121 -57 127
-84 127 -21 0 -32 -7 -39 -22z m55 -88 c23 -44 19 -60 -13 -60 -16 0 -31 3
-34 6 -5 4 23 84 29 84 1 0 9 -13 18 -30z"/>
<path d="M5430 800 l0 -30 90 0 c89 0 90 0 90 -25 0 -25 -1 -25 -90 -25 l-90
0 0 -75 0 -75 30 0 c29 0 30 2 30 45 l0 45 71 0 c100 0 109 7 109 83 0 36 -5
68 -12 75 -8 8 -49 12 -120 12 l-108 0 0 -30z"/>
<path d="M5710 700 l0 -130 30 0 c29 0 30 1 30 50 l0 50 60 0 60 0 0 -50 c0
-49 1 -50 30 -50 l30 0 0 130 0 130 -30 0 c-29 0 -30 -1 -30 -50 l0 -50 -60 0
-60 0 0 50 c0 49 -1 50 -30 50 l-30 0 0 -130z"/>
<path d="M6045 757 c52 -69 55 -77 55 -130 0 -57 0 -57 30 -57 l30 0 0 60 c0
58 3 64 51 128 l51 67 -33 3 c-27 3 -38 -3 -68 -38 l-36 -42 -30 41 c-26 35
-35 41 -68 41 l-37 0 55 -73z"/>
</g>
</svg>
